<svg id="SvgjsSvg1006" width="743" height="765" xmlns="http://www.w3.org/2000/svg" version="1.1" xmlns:xlink="http://www.w3.org/1999/xlink" xmlns:svgjs="http://svgjs.com/svgjs"><defs id="SvgjsDefs1007"><marker id="SvgjsMarker1016" markerWidth="16" markerHeight="12" refX="0" refY="6" viewBox="0 0 16 12" orient="auto" markerUnits="userSpaceOnUse"><path id="SvgjsPath1017" d="M15,1.5 L2,6 L15,10.5" fill="#323232" stroke="#323232" stroke-width="2"></path></marker><marker id="SvgjsMarker1026" markerWidth="16" markerHeight="12" refX="0" refY="6" viewBox="0 0 16 12" orient="auto" markerUnits="userSpaceOnUse"><path id="SvgjsPath1027" d="M15,1.5 L2,6 L15,10.5" fill="#323232" stroke="#323232" stroke-width="2"></path></marker><marker id="SvgjsMarker1030" markerWidth="16" markerHeight="12" refX="0" refY="6" viewBox="0 0 16 12" orient="auto" markerUnits="userSpaceOnUse"><path id="SvgjsPath1031" d="M15,1.5 L2,6 L15,10.5" fill="#323232" stroke="#323232" stroke-width="2"></path></marker><marker id="SvgjsMarker1034" markerWidth="16" markerHeight="12" refX="0" refY="6" viewBox="0 0 16 12" orient="auto" markerUnits="userSpaceOnUse"><path id="SvgjsPath1035" d="M15,1.5 L2,6 L15,10.5" fill="#323232" stroke="#323232" stroke-width="2"></path></marker><marker id="SvgjsMarker1069" markerWidth="16" markerHeight="12" refX="0" refY="6" viewBox="0 0 16 12" orient="auto" markerUnits="userSpaceOnUse"><path id="SvgjsPath1070" d="M15,1.5 L2,6 L15,10.5" fill="#323232" stroke="#323232" stroke-width="2"></path></marker><marker id="SvgjsMarker1073" markerWidth="16" markerHeight="12" refX="0" refY="6" viewBox="0 0 16 12" orient="auto" markerUnits="userSpaceOnUse"><path id="SvgjsPath1074" d="M15,1.5 L2,6 L15,10.5" fill="#323232" stroke="#323232" stroke-width="2"></path></marker><marker id="SvgjsMarker1077" markerWidth="16" markerHeight="12" refX="0" refY="6" viewBox="0 0 16 12" orient="auto" markerUnits="userSpaceOnUse"><path id="SvgjsPath1078" d="M15,1.5 L2,6 L15,10.5" fill="#323232" stroke="#323232" stroke-width="2"></path></marker><marker id="SvgjsMarker1099" markerWidth="16" markerHeight="12" refX="0" refY="6" viewBox="0 0 16 12" orient="auto" markerUnits="userSpaceOnUse"><path id="SvgjsPath1100" d="M15,1.5 L2,6 L15,10.5" fill="#323232" stroke="#323232" stroke-width="2"></path></marker><marker id="SvgjsMarker1120" markerWidth="16" markerHeight="12" refX="0" refY="6" viewBox="0 0 16 12" orient="auto" markerUnits="userSpaceOnUse"><path id="SvgjsPath1121" d="M15,1.5 L2,6 L15,10.5" fill="#323232" stroke="#323232" stroke-width="2"></path></marker><marker id="SvgjsMarker1124" markerWidth="16" markerHeight="12" refX="0" refY="6" viewBox="0 0 16 12" orient="auto" markerUnits="userSpaceOnUse"><path id="SvgjsPath1125" d="M15,1.5 L2,6 L15,10.5" fill="#323232" stroke="#323232" stroke-width="2"></path></marker><marker id="SvgjsMarker1128" markerWidth="16" markerHeight="12" refX="0" refY="6" viewBox="0 0 16 12" orient="auto" markerUnits="userSpaceOnUse"><path id="SvgjsPath1129" d="M15,1.5 L2,6 L15,10.5" fill="#323232" stroke="#323232" stroke-width="2"></path></marker><marker id="SvgjsMarker1132" markerWidth="16" markerHeight="12" refX="0" refY="6" viewBox="0 0 16 12" orient="auto" markerUnits="userSpaceOnUse"><path id="SvgjsPath1133" d="M15,1.5 L2,6 L15,10.5" fill="#323232" stroke="#323232" stroke-width="2"></path></marker></defs><g id="SvgjsG1008" transform="translate(253,557)"><path id="SvgjsPath1009" d="M 0 0L 100 0L 100 70L 0 70Z" stroke="rgba(50,50,50,1)" stroke-width="2" fill-opacity="1" fill="#ffffff"></path><g id="SvgjsG1010"><text id="SvgjsText1011" font-family="微软雅黑" text-anchor="middle" font-size="13px" width="65" fill="#323232" font-weight="400" align="middle" anchor="middle" family="微软雅黑" size="13px" weight="400" font-style="" opacity="1" y="25.05" transform="rotate(0)"><tspan id="SvgjsTspan1012" dy="16" x="50"><tspan id="SvgjsTspan1013" style="text-decoration:;">以太网驱动</tspan></tspan></text></g></g><g id="SvgjsG1014"><path id="SvgjsPath1015" d="M303 627L303 663.5L303 663.5L303 700" stroke="#323232" stroke-width="2" fill="none" marker-start="url(#SvgjsMarker1016)"></path></g><g id="SvgjsG1018" transform="translate(243,700)"><path id="SvgjsPath1019" d="M 0 0L 120 0L 120 40L 0 40Z" stroke="none" fill="none"></path><g id="SvgjsG1020"><text id="SvgjsText1021" font-family="微软雅黑" text-anchor="middle" font-size="13px" width="117" fill="#323232" font-weight="700" align="middle" anchor="middle" family="微软雅黑" size="13px" weight="700" font-style="" opacity="1" y="10.05" transform="rotate(0)"><tspan id="SvgjsTspan1022" dy="16" x="60"><tspan id="SvgjsTspan1023" style="text-decoration:;">进入以太网的数据帧</tspan></tspan></text></g></g><g id="SvgjsG1024"><path id="SvgjsPath1025" d="M303 458L303 557" stroke="#323232" stroke-width="2" fill="none" marker-start="url(#SvgjsMarker1026)"></path></g><g id="SvgjsG1028"><path id="SvgjsPath1029" d="M205 467L303 557" stroke="#323232" stroke-width="2" fill="none" marker-start="url(#SvgjsMarker1030)"></path></g><g id="SvgjsG1032"><path id="SvgjsPath1033" d="M401 466L303 557" stroke="#323232" stroke-width="2" fill="none" marker-start="url(#SvgjsMarker1034)"></path></g><g id="SvgjsG1036" transform="translate(479,451)"><path id="SvgjsPath1037" d="M 0 140Q 9 140 9 131L 9 79Q 9 70 22 70Q 9 70 9 61L 9 9Q 9 0 0 0" stroke="rgba(50,50,50,1)" stroke-width="2" fill-opacity="1" fill="#ffffff"></path><path id="SvgjsPath1038" d="M 0 0L 100 0L 100 140L 0 140Z" stroke="none" fill="none"></path><g id="SvgjsG1039"><text id="SvgjsText1040" font-family="微软雅黑" text-anchor="start" font-size="13px" width="65" fill="#323232" font-weight="700" align="middle" anchor="start" family="微软雅黑" size="13px" weight="700" font-style="" opacity="1" y="36.05" transform="rotate(0)"><tspan id="SvgjsTspan1041" dy="16" x="27"><tspan id="SvgjsTspan1042" style="text-decoration:;">根据以太网</tspan></tspan><tspan id="SvgjsTspan1043" dy="16" x="27"><tspan id="SvgjsTspan1044" style="text-decoration:;">首部帧类型</tspan></tspan><tspan id="SvgjsTspan1045" dy="16" x="27"><tspan id="SvgjsTspan1046" style="text-decoration:;">确定是何协</tspan></tspan><tspan id="SvgjsTspan1047" dy="16" x="27"><tspan id="SvgjsTspan1048" style="text-decoration:;">议</tspan></tspan></text></g></g><g id="SvgjsG1049" transform="translate(253,426)"><path id="SvgjsPath1050" d="M 0 0L 100 0L 100 32L 0 32Z" stroke="rgba(50,50,50,1)" stroke-width="2" fill-opacity="1" fill="#ffffff"></path><g id="SvgjsG1051"><text id="SvgjsText1052" font-family="微软雅黑" text-anchor="middle" font-size="13px" width="13" fill="#323232" font-weight="700" align="middle" anchor="middle" family="微软雅黑" size="13px" weight="700" font-style="" opacity="1" y="6.05" transform="rotate(0)"><tspan id="SvgjsTspan1053" dy="16" x="50"><tspan id="SvgjsTspan1054" style="text-decoration:;">IP</tspan></tspan></text></g></g><g id="SvgjsG1055" transform="translate(160,429)"><path id="SvgjsPath1056" d="M 0 0L 62 0L 62 34L 0 34Z" stroke="rgba(50,50,50,1)" stroke-width="2" fill-opacity="1" fill="#ffffff"></path><g id="SvgjsG1057"><text id="SvgjsText1058" font-family="微软雅黑" text-anchor="middle" font-size="13px" width="27" fill="#323232" font-weight="700" align="middle" anchor="middle" family="微软雅黑" size="13px" weight="700" font-style="" opacity="1" y="7.05" transform="rotate(0)"><tspan id="SvgjsTspan1059" dy="16" x="31"><tspan id="SvgjsTspan1060" style="text-decoration:;">ARP</tspan></tspan></text></g></g><g id="SvgjsG1061" transform="translate(381,426)"><path id="SvgjsPath1062" d="M 0 0L 65 0L 65 40L 0 40Z" stroke="rgba(50,50,50,1)" stroke-width="2" fill-opacity="1" fill="#ffffff"></path><g id="SvgjsG1063"><text id="SvgjsText1064" font-family="微软雅黑" text-anchor="middle" font-size="13px" width="36" fill="#323232" font-weight="700" align="middle" anchor="middle" family="微软雅黑" size="13px" weight="700" font-style="" opacity="1" y="10.05" transform="rotate(0)"><tspan id="SvgjsTspan1065" dy="16" x="32.5"><tspan id="SvgjsTspan1066" style="text-decoration:;">RARP</tspan></tspan></text></g></g><g id="SvgjsG1067"><path id="SvgjsPath1068" d="M303 271L305 427" stroke="#323232" stroke-width="2" fill="none" marker-start="url(#SvgjsMarker1069)"></path></g><g id="SvgjsG1071"><path id="SvgjsPath1072" d="M487 271L303 426" stroke="#323232" stroke-width="2" fill="none" marker-start="url(#SvgjsMarker1073)"></path></g><g id="SvgjsG1075"><path id="SvgjsPath1076" d="M222 319L303 426" stroke="#323232" stroke-width="2" fill="none" marker-start="url(#SvgjsMarker1077)"></path></g><g id="SvgjsG1079" transform="translate(253,238)"><path id="SvgjsPath1080" d="M 0 0L 100 0L 100 33L 0 33Z" stroke="rgba(50,50,50,1)" stroke-width="2" fill-opacity="1" fill="#ffffff"></path><g id="SvgjsG1081"><text id="SvgjsText1082" font-family="微软雅黑" text-anchor="middle" font-size="13px" width="25" fill="#323232" font-weight="700" align="middle" anchor="middle" family="微软雅黑" size="13px" weight="700" font-style="" opacity="1" y="6.55" transform="rotate(0)"><tspan id="SvgjsTspan1083" dy="16" x="50"><tspan id="SvgjsTspan1084" style="text-decoration:;">TCP</tspan></tspan></text></g></g><g id="SvgjsG1085" transform="translate(160,279)"><path id="SvgjsPath1086" d="M 0 0L 104 0L 104 37L 0 37Z" stroke="rgba(50,50,50,1)" stroke-width="2" fill-opacity="1" fill="#ffffff"></path><g id="SvgjsG1087"><text id="SvgjsText1088" font-family="微软雅黑" text-anchor="middle" font-size="13px" width="36" fill="#323232" font-weight="700" align="middle" anchor="middle" family="微软雅黑" size="13px" weight="700" font-style="" opacity="1" y="8.55" transform="rotate(0)"><tspan id="SvgjsTspan1089" dy="16" x="52"><tspan id="SvgjsTspan1090" style="text-decoration:;">IGMP</tspan></tspan></text></g></g><g id="SvgjsG1091" transform="translate(25,293)"><path id="SvgjsPath1092" d="M 0 0L 101 0L 101 38L 0 38Z" stroke="rgba(50,50,50,1)" stroke-width="2" fill-opacity="1" fill="#ffffff"></path><g id="SvgjsG1093"><text id="SvgjsText1094" font-family="微软雅黑" text-anchor="middle" font-size="13px" width="35" fill="#323232" font-weight="700" align="middle" anchor="middle" family="微软雅黑" size="13px" weight="700" font-style="" opacity="1" y="9.05" transform="rotate(0)"><tspan id="SvgjsTspan1095" dy="16" x="50.5"><tspan id="SvgjsTspan1096" style="text-decoration:;">ICMP</tspan></tspan></text></g></g><g id="SvgjsG1097"><path id="SvgjsPath1098" d="M100 335L253 442" stroke="#323232" stroke-width="2" fill="none" marker-start="url(#SvgjsMarker1099)"></path></g><g id="SvgjsG1101" transform="translate(437,238)"><path id="SvgjsPath1102" d="M 0 0L 98 0L 98 33L 0 33Z" stroke="rgba(50,50,50,1)" stroke-width="2" fill-opacity="1" fill="#ffffff"></path><g id="SvgjsG1103"><text id="SvgjsText1104" font-family="微软雅黑" text-anchor="middle" font-size="13px" width="29" fill="#323232" font-weight="700" align="middle" anchor="middle" family="微软雅黑" size="13px" weight="700" font-style="" opacity="1" y="6.55" transform="rotate(0)"><tspan id="SvgjsTspan1105" dy="16" x="49"><tspan id="SvgjsTspan1106" style="text-decoration:;">UDP</tspan></tspan></text></g></g><g id="SvgjsG1107" transform="translate(546,279)"><path id="SvgjsPath1108" d="M 0 140Q 9 140 9 131L 9 79Q 9 70 22 70Q 9 70 9 61L 9 9Q 9 0 0 0" stroke="rgba(50,50,50,1)" stroke-width="2" fill-opacity="1" fill="#ffffff"></path><path id="SvgjsPath1109" d="M 0 0L 100 0L 100 140L 0 140Z" stroke="none" fill="none"></path><g id="SvgjsG1110"><text id="SvgjsText1111" font-family="微软雅黑" text-anchor="start" font-size="13px" width="65" fill="#323232" font-weight="700" align="middle" anchor="start" family="微软雅黑" size="13px" weight="700" font-style="" opacity="1" y="44.05" transform="rotate(0)"><tspan id="SvgjsTspan1112" dy="16" x="27"><tspan id="SvgjsTspan1113" style="text-decoration:;">根据IP首部</tspan></tspan><tspan id="SvgjsTspan1114" dy="16" x="27"><tspan id="SvgjsTspan1115" style="text-decoration:;">的协议值进</tspan></tspan><tspan id="SvgjsTspan1116" dy="16" x="27"><tspan id="SvgjsTspan1117" style="text-decoration:;">行分用</tspan></tspan></text></g></g><g id="SvgjsG1118"><path id="SvgjsPath1119" d="M205 120L303 238" stroke="#323232" stroke-width="2" fill="none" marker-start="url(#SvgjsMarker1120)"></path></g><g id="SvgjsG1122"><path id="SvgjsPath1123" d="M357 116L303 238" stroke="#323232" stroke-width="2" fill="none" marker-start="url(#SvgjsMarker1124)"></path></g><g id="SvgjsG1126"><path id="SvgjsPath1127" d="M465 115L486 238" stroke="#323232" stroke-width="2" fill="none" marker-start="url(#SvgjsMarker1128)"></path></g><g id="SvgjsG1130"><path id="SvgjsPath1131" d="M565 58L486 238" stroke="#323232" stroke-width="2" fill="none" marker-start="url(#SvgjsMarker1132)"></path></g><g id="SvgjsG1134" transform="translate(618,82)"><path id="SvgjsPath1135" d="M 0 140Q 9 140 9 131L 9 79Q 9 70 22 70Q 9 70 9 61L 9 9Q 9 0 0 0" stroke="rgba(50,50,50,1)" stroke-width="2" fill-opacity="1" fill="#ffffff"></path><path id="SvgjsPath1136" d="M 0 0L 100 0L 100 140L 0 140Z" stroke="none" fill="none"></path><g id="SvgjsG1137"><text id="SvgjsText1138" font-family="微软雅黑" text-anchor="start" font-size="13px" width="67" fill="#323232" font-weight="700" align="middle" anchor="start" family="微软雅黑" size="13px" weight="700" font-style="" opacity="1" y="28.05" transform="rotate(0)"><tspan id="SvgjsTspan1139" dy="16" x="27"><tspan id="SvgjsTspan1140" style="text-decoration:;">根据根据</tspan></tspan><tspan id="SvgjsTspan1141" dy="16" x="27"><tspan id="SvgjsTspan1142" style="text-decoration:;">TCP或UDP</tspan></tspan><tspan id="SvgjsTspan1143" dy="16" x="27"><tspan id="SvgjsTspan1144" style="text-decoration:;">首部中的端</tspan></tspan><tspan id="SvgjsTspan1145" dy="16" x="27"><tspan id="SvgjsTspan1146" style="text-decoration:;">口号进行</tspan></tspan><tspan id="SvgjsTspan1147" dy="16" x="27"><tspan id="SvgjsTspan1148" style="text-decoration:;">分用</tspan></tspan></text></g></g><g id="SvgjsG1149" transform="translate(153,82)"><path id="SvgjsPath1150" d="M 0 0L 100 0L 100 33L 0 33Z" stroke="rgba(50,50,50,1)" stroke-width="2" fill-opacity="1" fill="#ffffff"></path><g id="SvgjsG1151"><text id="SvgjsText1152" font-family="微软雅黑" text-anchor="middle" font-size="13px" width="60" fill="#323232" font-weight="700" align="middle" anchor="middle" family="微软雅黑" size="13px" weight="700" font-style="" opacity="1" y="6.55" transform="rotate(0)"><tspan id="SvgjsTspan1153" dy="16" x="50"><tspan id="SvgjsTspan1154" style="text-decoration:;">应用程序1</tspan></tspan></text></g></g><g id="SvgjsG1155" transform="translate(298,78)"><path id="SvgjsPath1156" d="M 0 0L 100 0L 100 33L 0 33Z" stroke="rgba(50,50,50,1)" stroke-width="2" fill-opacity="1" fill="#ffffff"></path><g id="SvgjsG1157"><text id="SvgjsText1158" font-family="微软雅黑" text-anchor="middle" font-size="13px" width="60" fill="#323232" font-weight="700" align="middle" anchor="middle" family="微软雅黑" size="13px" weight="700" font-style="" opacity="1" y="6.55" transform="rotate(0)"><tspan id="SvgjsTspan1159" dy="16" x="50"><tspan id="SvgjsTspan1160" style="text-decoration:;">应用程序2</tspan></tspan></text></g></g><g id="SvgjsG1161" transform="translate(415,82)"><path id="SvgjsPath1162" d="M 0 0L 100 0L 100 33L 0 33Z" stroke="rgba(50,50,50,1)" stroke-width="2" fill-opacity="1" fill="#ffffff"></path><g id="SvgjsG1163"><text id="SvgjsText1164" font-family="微软雅黑" text-anchor="middle" font-size="13px" width="60" fill="#323232" font-weight="700" align="middle" anchor="middle" family="微软雅黑" size="13px" weight="700" font-style="" opacity="1" y="6.55" transform="rotate(0)"><tspan id="SvgjsTspan1165" dy="16" x="50"><tspan id="SvgjsTspan1166" style="text-decoration:;">应用程序3</tspan></tspan></text></g></g><g id="SvgjsG1167" transform="translate(515,25)"><path id="SvgjsPath1168" d="M 0 0L 100 0L 100 33L 0 33Z" stroke="rgba(50,50,50,1)" stroke-width="2" fill-opacity="1" fill="#ffffff"></path><g id="SvgjsG1169"><text id="SvgjsText1170" font-family="微软雅黑" text-anchor="middle" font-size="13px" width="60" fill="#323232" font-weight="700" align="middle" anchor="middle" family="微软雅黑" size="13px" weight="700" font-style="" opacity="1" y="6.55" transform="rotate(0)"><tspan id="SvgjsTspan1171" dy="16" x="50"><tspan id="SvgjsTspan1172" style="text-decoration:;">应用程序4</tspan></tspan></text></g></g></svg>