<svg id="SvgjsSvg1150" width="1079" height="400.21875" xmlns="http://www.w3.org/2000/svg" version="1.1" xmlns:xlink="http://www.w3.org/1999/xlink" xmlns:svgjs="http://svgjs.com/svgjs"><defs id="SvgjsDefs1151"><marker id="SvgjsMarker1198" markerWidth="16" markerHeight="12" refX="0" refY="6" viewBox="0 0 16 12" orient="auto" markerUnits="userSpaceOnUse"><path id="SvgjsPath1199" d="M15,1.5 L2,6 L15,10.5" fill="#323232" stroke="#323232" stroke-width="2"></path></marker><marker id="SvgjsMarker1200" markerWidth="16" markerHeight="12" refX="16" refY="6" viewBox="0 0 16 12" orient="auto" markerUnits="userSpaceOnUse"><path id="SvgjsPath1201" d="M0,2 L14,6 L0,11 L0,2" fill="#323232" stroke="#323232" stroke-width="2"></path></marker><marker id="SvgjsMarker1220" markerWidth="16" markerHeight="12" refX="0" refY="6" viewBox="0 0 16 12" orient="auto" markerUnits="userSpaceOnUse"><path id="SvgjsPath1221" d="M15,1.5 L2,6 L15,10.5" fill="#323232" stroke="#323232" stroke-width="2"></path></marker><marker id="SvgjsMarker1222" markerWidth="16" markerHeight="12" refX="16" refY="6" viewBox="0 0 16 12" orient="auto" markerUnits="userSpaceOnUse"><path id="SvgjsPath1223" d="M0,2 L14,6 L0,11 L0,2" fill="#323232" stroke="#323232" stroke-width="2"></path></marker><marker id="SvgjsMarker1278" markerWidth="16" markerHeight="12" refX="0" refY="6" viewBox="0 0 16 12" orient="auto" markerUnits="userSpaceOnUse"><path id="SvgjsPath1279" d="M15,1.5 L2,6 L15,10.5" fill="#323232" stroke="#323232" stroke-width="2"></path></marker><marker id="SvgjsMarker1280" markerWidth="16" markerHeight="12" refX="16" refY="6" viewBox="0 0 16 12" orient="auto" markerUnits="userSpaceOnUse"><path id="SvgjsPath1281" d="M0,2 L14,6 L0,11 L0,2" fill="#323232" stroke="#323232" stroke-width="2"></path></marker><marker id="SvgjsMarker1290" markerWidth="16" markerHeight="12" refX="0" refY="6" viewBox="0 0 16 12" orient="auto" markerUnits="userSpaceOnUse"><path id="SvgjsPath1291" d="M15,1.5 L2,6 L15,10.5" fill="#323232" stroke="#323232" stroke-width="2"></path></marker><marker id="SvgjsMarker1292" markerWidth="16" markerHeight="12" refX="16" refY="6" viewBox="0 0 16 12" orient="auto" markerUnits="userSpaceOnUse"><path id="SvgjsPath1293" d="M0,2 L14,6 L0,11 L0,2" fill="#323232" stroke="#323232" stroke-width="2"></path></marker><marker id="SvgjsMarker1312" markerWidth="16" markerHeight="12" refX="0" refY="6" viewBox="0 0 16 12" orient="auto" markerUnits="userSpaceOnUse"><path id="SvgjsPath1313" d="M15,1.5 L2,6 L15,10.5" fill="#323232" stroke="#323232" stroke-width="2"></path></marker><marker id="SvgjsMarker1314" markerWidth="16" markerHeight="12" refX="16" refY="6" viewBox="0 0 16 12" orient="auto" markerUnits="userSpaceOnUse"><path id="SvgjsPath1315" d="M0,2 L14,6 L0,11 L0,2" fill="#323232" stroke="#323232" stroke-width="2"></path></marker><marker id="SvgjsMarker1318" markerWidth="16" markerHeight="12" refX="0" refY="6" viewBox="0 0 16 12" orient="auto" markerUnits="userSpaceOnUse"><path id="SvgjsPath1319" d="M15,1.5 L2,6 L15,10.5" fill="#323232" stroke="#323232" stroke-width="2"></path></marker><marker id="SvgjsMarker1320" markerWidth="16" markerHeight="12" refX="16" refY="6" viewBox="0 0 16 12" orient="auto" markerUnits="userSpaceOnUse"><path id="SvgjsPath1321" d="M0,2 L14,6 L0,11 L0,2" fill="#323232" stroke="#323232" stroke-width="2"></path></marker><marker id="SvgjsMarker1324" markerWidth="16" markerHeight="12" refX="0" refY="6" viewBox="0 0 16 12" orient="auto" markerUnits="userSpaceOnUse"><path id="SvgjsPath1325" d="M15,1.5 L2,6 L15,10.5" fill="#323232" stroke="#323232" stroke-width="2"></path></marker><marker id="SvgjsMarker1326" markerWidth="16" markerHeight="12" refX="16" refY="6" viewBox="0 0 16 12" orient="auto" markerUnits="userSpaceOnUse"><path id="SvgjsPath1327" d="M0,2 L14,6 L0,11 L0,2" fill="#323232" stroke="#323232" stroke-width="2"></path></marker><marker id="SvgjsMarker1330" markerWidth="16" markerHeight="12" refX="0" refY="6" viewBox="0 0 16 12" orient="auto" markerUnits="userSpaceOnUse"><path id="SvgjsPath1331" d="M15,1.5 L2,6 L15,10.5" fill="#323232" stroke="#323232" stroke-width="2"></path></marker><marker id="SvgjsMarker1332" markerWidth="16" markerHeight="12" refX="16" refY="6" viewBox="0 0 16 12" orient="auto" markerUnits="userSpaceOnUse"><path id="SvgjsPath1333" d="M0,2 L14,6 L0,11 L0,2" fill="#323232" stroke="#323232" stroke-width="2"></path></marker></defs><g id="SvgjsG1152" transform="translate(507.990980345819,207.21938560474223)"><path id="SvgjsPath1153" d="M 0 4Q 0 0 4 0L 190.56236953011145 0Q 194.56236953011145 0 194.56236953011145 4L 194.56236953011145 153.78170546008266Q 194.56236953011145 157.78170546008266 190.56236953011145 157.78170546008266L 4 157.78170546008266Q 0 157.78170546008266 0 153.78170546008266Z" stroke-dasharray="10,6" stroke="#8a8a8a" stroke-width="2" fill-opacity="1" fill="#ffffff"></path><g id="SvgjsG1154"><text id="SvgjsText1155" font-family="微软雅黑" text-anchor="middle" font-size="13px" width="0" fill="#323232" font-weight="400" align="middle" anchor="middle" family="微软雅黑" size="13px" weight="400" font-style="" y="68.94085273004133" transform="rotate(0)"></text></g></g><g id="SvgjsG1156" transform="translate(166,26.294978382640863)"><path id="SvgjsPath1157" d="M 0 0L 208 0L 208 67.3033023822695L 0 67.3033023822695Z" stroke="#323232" stroke-width="2" fill-opacity="1" fill="#ffffff"></path><g id="SvgjsG1158"><text id="SvgjsText1159" font-family="微软雅黑" text-anchor="middle" font-size="13px" width="59" fill="#323232" font-weight="400" align="middle" anchor="middle" family="微软雅黑" size="13px" weight="400" font-style="" y="23.701651191134747" transform="rotate(0)"><tspan id="SvgjsTspan1160" dy="16" x="104"><tspan id="SvgjsTspan1161" style="text-decoration:;">HTTP用户</tspan></tspan></text></g></g><g id="SvgjsG1162" transform="translate(830,26.294978382640863)"><path id="SvgjsPath1163" d="M 0 0L 224.0000000000001 0L 224.0000000000001 67.30330238226951L 0 67.30330238226951Z" stroke="#323232" stroke-width="2" fill-opacity="1" fill="#ffffff"></path><g id="SvgjsG1164"><text id="SvgjsText1165" font-family="微软雅黑" text-anchor="middle" font-size="13px" width="72" fill="#323232" font-weight="400" align="middle" anchor="middle" family="微软雅黑" size="13px" weight="400" font-style="" y="23.701651191134754" transform="rotate(0)"><tspan id="SvgjsTspan1166" dy="16" x="112.5"><tspan id="SvgjsTspan1167" style="text-decoration:;">HTTP服务器</tspan></tspan></text></g></g><g id="SvgjsG1168" transform="translate(436.1616579358515,25.00696446051773)"><path id="SvgjsPath1169" d="M 0 0L 338.2210143500466 0L 338.2210143500466 38.952033935175116L 0 38.952033935175116Z" stroke="none" fill="none"></path><g id="SvgjsG1170"><text id="SvgjsText1171" font-family="微软雅黑" text-anchor="middle" font-size="13px" width="59" fill="#323232" font-weight="400" align="middle" anchor="middle" family="微软雅黑" size="13px" weight="400" font-style="" y="9.526016967587559" transform="rotate(0)"><tspan id="SvgjsTspan1172" dy="16" x="169.5"><tspan id="SvgjsTspan1173" style="text-decoration:;">HTTP协议</tspan></tspan></text></g></g><g id="SvgjsG1174" transform="translate(28,31.87550644442024)"><path id="SvgjsPath1175" d="M 0 0L 184.21836228287842 0L 184.21836228287842 40.71785947356972L 0 40.71785947356972Z" stroke="none" fill="none"></path><g id="SvgjsG1176"><text id="SvgjsText1177" font-family="微软雅黑" text-anchor="middle" font-size="13px" width="39" fill="#323232" font-weight="400" align="middle" anchor="middle" family="微软雅黑" size="13px" weight="400" font-style="" y="10.40892973678486" transform="rotate(0)"><tspan id="SvgjsTspan1178" dy="16" x="92.5"><tspan id="SvgjsTspan1179" style="text-decoration:;">应用层</tspan></tspan></text></g></g><g id="SvgjsG1180"><path id="SvgjsPath1181" d="M270 93.59828076491036L270 105.13598974472796L270 105.13598974472796L270 116.6736987245456" stroke="#323232" stroke-width="2" fill="none"></path></g><g id="SvgjsG1182" transform="translate(166,116.6736987245456)"><path id="SvgjsPath1183" d="M 0 0L 208 0L 208 67.3033023822695L 0 67.3033023822695Z" stroke="#323232" stroke-width="2" fill-opacity="1" fill="#ffffff"></path><g id="SvgjsG1184"><text id="SvgjsText1185" font-family="微软雅黑" text-anchor="middle" font-size="13px" width="24" fill="#323232" font-weight="400" align="middle" anchor="middle" family="微软雅黑" size="13px" weight="400" font-style="" y="23.701651191134747" transform="rotate(0)"><tspan id="SvgjsTspan1186" dy="16" x="104"><tspan id="SvgjsTspan1187" style="text-decoration:;">TCP</tspan></tspan></text></g></g><g id="SvgjsG1188"><path id="SvgjsPath1189" d="M941.9999999999998 93.59828076491038L941.9999999999998 105.135989744728L942 105.135989744728L942 116.6736987245456" stroke="#323232" stroke-width="2" fill="none"></path></g><g id="SvgjsG1190" transform="translate(830,116.6736987245456)"><path id="SvgjsPath1191" d="M 0 0L 224.0000000000001 0L 224.0000000000001 67.30330238226951L 0 67.30330238226951Z" stroke="#323232" stroke-width="2" fill-opacity="1" fill="#ffffff"></path><g id="SvgjsG1192"><text id="SvgjsText1193" font-family="微软雅黑" text-anchor="middle" font-size="13px" width="24" fill="#323232" font-weight="400" align="middle" anchor="middle" family="微软雅黑" size="13px" weight="400" font-style="" y="23.701651191134754" transform="rotate(0)"><tspan id="SvgjsTspan1194" dy="16" x="112.5"><tspan id="SvgjsTspan1195" style="text-decoration:;">TCP</tspan></tspan></text></g></g><g id="SvgjsG1196"><path id="SvgjsPath1197" d="M374 150.32534991568033L602 150.32534991568033L602 150.32534991568036L830 150.32534991568036" stroke-dasharray="3,3" stroke="#323232" stroke-width="2" fill="none" marker-start="url(#SvgjsMarker1198)" marker-end="url(#SvgjsMarker1200)"></path></g><g id="SvgjsG1202"><path id="SvgjsPath1203" d="M270 183.97700110681512L270 195.51471008663276L270 195.51471008663276L270 207.0524190664504" stroke="#323232" stroke-width="2" fill="none"></path></g><g id="SvgjsG1204" transform="translate(166,207.0524190664504)"><path id="SvgjsPath1205" d="M 0 0L 208 0L 208 67.3033023822695L 0 67.3033023822695Z" stroke="#323232" stroke-width="2" fill-opacity="1" fill="#ffffff"></path><g id="SvgjsG1206"><text id="SvgjsText1207" font-family="微软雅黑" text-anchor="middle" font-size="13px" width="12" fill="#323232" font-weight="400" align="middle" anchor="middle" family="微软雅黑" size="13px" weight="400" font-style="" y="23.701651191134747" transform="rotate(0)"><tspan id="SvgjsTspan1208" dy="16" x="104"><tspan id="SvgjsTspan1209" style="text-decoration:;">IP</tspan></tspan></text></g></g><g id="SvgjsG1210"><path id="SvgjsPath1211" d="M941.9999999999998 183.97700110681512L941.9999999999998 195.51471008663276L942 195.51471008663276L942 207.0524190664504" stroke="#323232" stroke-width="2" fill="none"></path></g><g id="SvgjsG1212" transform="translate(830,207.0524190664504)"><path id="SvgjsPath1213" d="M 0 0L 224.0000000000001 0L 224.0000000000001 67.30330238226951L 0 67.30330238226951Z" stroke="#323232" stroke-width="2" fill-opacity="1" fill="#ffffff"></path><g id="SvgjsG1214"><text id="SvgjsText1215" font-family="微软雅黑" text-anchor="middle" font-size="13px" width="12" fill="#323232" font-weight="400" align="middle" anchor="middle" family="微软雅黑" size="13px" weight="400" font-style="" y="23.701651191134754" transform="rotate(0)"><tspan id="SvgjsTspan1216" dy="16" x="112.5"><tspan id="SvgjsTspan1217" style="text-decoration:;">IP</tspan></tspan></text></g></g><g id="SvgjsG1218"><path id="SvgjsPath1219" d="M374 240.7040702575851C 444.7270277394723 240.7040702575851 479.84617325308363 231.4111954807483 550.5732009925559 231.4111954807483" stroke-dasharray="3,3" stroke="#323232" stroke-width="2" fill="none" marker-start="url(#SvgjsMarker1220)" marker-end="url(#SvgjsMarker1222)"></path></g><g id="SvgjsG1224"><path id="SvgjsPath1225" d="M270 274.3557214487199L270 286.02675506563764L270 286.02675506563764L270 297.69778868255537" stroke="#323232" stroke-width="2" fill="none"></path></g><g id="SvgjsG1226" transform="translate(166,297.69778868255537)"><path id="SvgjsPath1227" d="M 0 0L 208 0L 208 67.3033023822695L 0 67.3033023822695Z" stroke="#323232" stroke-width="2" fill-opacity="1" fill="#ffffff"></path><g id="SvgjsG1228"><text id="SvgjsText1229" font-family="微软雅黑" text-anchor="middle" font-size="13px" width="185" fill="#323232" font-weight="400" align="middle" anchor="middle" family="微软雅黑" size="13px" weight="400" font-style="" y="23.701651191134747" transform="rotate(0)"><tspan id="SvgjsTspan1230" dy="16" x="104"><tspan id="SvgjsTspan1231" style="text-decoration:;">Ethernet Driver（以太网驱动）</tspan></tspan></text></g></g><g id="SvgjsG1232"><path id="SvgjsPath1233" d="M941.9999999999998 274.3557214487199L941.9999999999998 286.02675506563764L942 286.02675506563764L942 297.69778868255537" stroke="#323232" stroke-width="2" fill="none"></path></g><g id="SvgjsG1234" transform="translate(830,297.69778868255537)"><path id="SvgjsPath1235" d="M 0 0L 224.0000000000001 0L 224.0000000000001 67.30330238226951L 0 67.30330238226951Z" stroke="#323232" stroke-width="2" fill-opacity="1" fill="#ffffff"></path><g id="SvgjsG1236"><text id="SvgjsText1237" font-family="微软雅黑" text-anchor="middle" font-size="13px" width="119" fill="#323232" font-weight="400" align="middle" anchor="middle" family="微软雅黑" size="13px" weight="400" font-style="" y="23.701651191134754" transform="rotate(0)"><tspan id="SvgjsTspan1238" dy="16" x="112.5"><tspan id="SvgjsTspan1239" style="text-decoration:;">令牌环网驱动 Driver</tspan></tspan></text></g></g><g id="SvgjsG1240" transform="translate(432.7075636430475,113.4904047476615)"><path id="SvgjsPath1241" d="M 0 0L 338.2210143500466 0L 338.2210143500466 38.952033935175116L 0 38.952033935175116Z" stroke="none" fill="none"></path><g id="SvgjsG1242"><text id="SvgjsText1243" font-family="微软雅黑" text-anchor="middle" font-size="13px" width="50" fill="#323232" font-weight="400" align="middle" anchor="middle" family="微软雅黑" size="13px" weight="400" font-style="" y="9.526016967587559" transform="rotate(0)"><tspan id="SvgjsTspan1244" dy="16" x="169.5"><tspan id="SvgjsTspan1245" style="text-decoration:;">TCP协议</tspan></tspan></text></g></g><g id="SvgjsG1246" transform="translate(508.3351713996876,177.6989374864042)"><path id="SvgjsPath1247" d="M 0 0L 193.8739874223746 0L 193.8739874223746 35.89819447465738L 0 35.89819447465738Z" stroke="none" fill="none"></path><g id="SvgjsG1248"><text id="SvgjsText1249" font-family="微软雅黑" text-anchor="middle" font-size="13px" width="39" fill="#323232" font-weight="400" align="middle" anchor="middle" family="微软雅黑" size="13px" weight="400" font-style="" y="7.99909723732869" transform="rotate(0)"><tspan id="SvgjsTspan1250" dy="16" x="97"><tspan id="SvgjsTspan1251" style="text-decoration:;">路由器</tspan></tspan></text></g></g><g id="SvgjsG1252" transform="translate(403.13454645712727,302.9063553676311)"><path id="SvgjsPath1253" d="M 0 0L 105.20062494256037 0L 105.20062494256037 30.844817272133987L 0 30.844817272133987Z" stroke="none" fill="none"></path><g id="SvgjsG1254"><text id="SvgjsText1255" font-family="微软雅黑" text-anchor="middle" font-size="13px" width="65" fill="#323232" font-weight="400" align="middle" anchor="middle" family="微软雅黑" size="13px" weight="400" font-style="" y="5.4724086360669935" transform="rotate(0)"><tspan id="SvgjsTspan1256" dy="16" x="53"><tspan id="SvgjsTspan1257" style="text-decoration:;">以太网协议</tspan></tspan></text></g></g><g id="SvgjsG1258" transform="translate(28,127.15140648792686)"><path id="SvgjsPath1259" d="M 0 0L 160 0L 160 40L 0 40Z" stroke="none" fill="none"></path><g id="SvgjsG1260"><text id="SvgjsText1261" font-family="微软雅黑" text-anchor="middle" font-size="13px" width="63" fill="#323232" font-weight="400" align="middle" anchor="middle" family="微软雅黑" size="13px" weight="400" font-style="" y="10.05" transform="rotate(0)"><tspan id="SvgjsTspan1262" dy="16" x="80"><tspan id="SvgjsTspan1263" style="text-decoration:;">TCP协议层</tspan></tspan></text></g></g><g id="SvgjsG1264" transform="translate(25,224.7945433162932)"><path id="SvgjsPath1265" d="M 0 0L 184.21836228287842 0L 184.21836228287842 40.71785947356972L 0 40.71785947356972Z" stroke="none" fill="none"></path><g id="SvgjsG1266"><text id="SvgjsText1267" font-family="微软雅黑" text-anchor="middle" font-size="13px" width="51" fill="#323232" font-weight="400" align="middle" anchor="middle" family="微软雅黑" size="13px" weight="400" font-style="" y="10.40892973678486" transform="rotate(0)"><tspan id="SvgjsTspan1268" dy="16" x="92.5"><tspan id="SvgjsTspan1269" style="text-decoration:;">IP协议层</tspan></tspan></text></g></g><g id="SvgjsG1270" transform="translate(25,320.48151307918204)"><path id="SvgjsPath1271" d="M 0 0L 184.21836228287842 0L 184.21836228287842 40.71785947356972L 0 40.71785947356972Z" stroke="none" fill="none"></path><g id="SvgjsG1272"><text id="SvgjsText1273" font-family="微软雅黑" text-anchor="middle" font-size="13px" width="39" fill="#323232" font-weight="400" align="middle" anchor="middle" family="微软雅黑" size="13px" weight="400" font-style="" y="10.40892973678486" transform="rotate(0)"><tspan id="SvgjsTspan1274" dy="16" x="92.5"><tspan id="SvgjsTspan1275" style="text-decoration:;">链路层</tspan></tspan></text></g></g><g id="SvgjsG1276"><path id="SvgjsPath1277" d="M374 59.94662957377561L602 59.94662957377561L602 59.946629573775624L830 59.946629573775624" stroke-dasharray="3,3" stroke="#323232" stroke-width="2" fill="none" marker-start="url(#SvgjsMarker1278)" marker-end="url(#SvgjsMarker1280)"></path></g><g id="SvgjsG1282" transform="translate(550.5732009925559,213.59713196106156)"><path id="SvgjsPath1283" d="M 0 4Q 0 0 4 0L 105.39792823663791 0Q 109.39792823663791 0 109.39792823663791 4L 109.39792823663791 31.628127039373503Q 109.39792823663791 35.6281270393735 105.39792823663791 35.6281270393735L 4 35.6281270393735Q 0 35.6281270393735 0 31.628127039373503Z" stroke="#323232" stroke-width="2" fill-opacity="1" fill="#ffffff"></path><g id="SvgjsG1284"><text id="SvgjsText1285" font-family="微软雅黑" text-anchor="middle" font-size="13px" width="12" fill="#323232" font-weight="400" align="middle" anchor="middle" family="微软雅黑" size="13px" weight="400" font-style="" y="7.864063519686751" transform="rotate(0)"><tspan id="SvgjsTspan1286" dy="16" x="55"><tspan id="SvgjsTspan1287" style="text-decoration:;">IP</tspan></tspan></text></g></g><g id="SvgjsG1288"><path id="SvgjsPath1289" d="M661.7926004700197 227.91330283336953C 729.0755602820118 233.02960980305573 762.5227943815825 240.7040702575851 830 240.7040702575851" stroke-dasharray="3,3" stroke="#323232" stroke-width="2" fill="none" marker-start="url(#SvgjsMarker1290)" marker-end="url(#SvgjsMarker1292)"></path></g><g id="SvgjsG1294" transform="translate(514.8808933002481,305.96019482814876)"><path id="SvgjsPath1295" d="M 0 4Q 0 0 4 0L 76.59553349875931 0Q 80.59553349875931 0 80.59553349875931 4L 80.59553349875931 51.239177724602996Q 80.59553349875931 55.239177724602996 76.59553349875931 55.239177724602996L 4 55.239177724602996Q 0 55.239177724602996 0 51.239177724602996Z" stroke="#323232" stroke-width="2" fill-opacity="1" fill="#ffffff"></path><g id="SvgjsG1296"><text id="SvgjsText1297" font-family="微软雅黑" text-anchor="middle" font-size="13px" width="52" fill="#323232" font-weight="400" align="middle" anchor="middle" family="微软雅黑" size="13px" weight="400" font-style="" y="9.669588862301499" transform="rotate(0)"><tspan id="SvgjsTspan1298" dy="16" x="40.5"><tspan id="SvgjsTspan1299" style="text-decoration:;">以太网驱</tspan></tspan><tspan id="SvgjsTspan1300" dy="16" x="40.5"><tspan id="SvgjsTspan1301" style="text-decoration:;">动程序</tspan></tspan></text></g></g><g id="SvgjsG1302" transform="translate(616.2009925558312,308.13112151946916)"><path id="SvgjsPath1303" d="M 0 4Q 0 0 4 0L 78.55407197342684 0Q 82.55407197342684 0 82.55407197342684 4L 82.55407197342684 46.897324341962204Q 82.55407197342684 50.897324341962204 78.55407197342684 50.897324341962204L 4 50.897324341962204Q 0 50.897324341962204 0 46.897324341962204Z" stroke="#323232" stroke-width="2" fill-opacity="1" fill="#ffffff"></path><g id="SvgjsG1304"><text id="SvgjsText1305" font-family="微软雅黑" text-anchor="middle" font-size="13px" width="52" fill="#323232" font-weight="400" align="middle" anchor="middle" family="微软雅黑" size="13px" weight="400" font-style="" y="7.498662170981102" transform="rotate(0)"><tspan id="SvgjsTspan1306" dy="16" x="41.5"><tspan id="SvgjsTspan1307" style="text-decoration:;">令牌环网</tspan></tspan><tspan id="SvgjsTspan1308" dy="16" x="41.5"><tspan id="SvgjsTspan1309" style="text-decoration:;">驱动程序</tspan></tspan></text></g></g><g id="SvgjsG1310"><path id="SvgjsPath1311" d="M374 331.34943987369013L509.12406947890815 333.4447499728084" stroke-dasharray="3,3" stroke="#323232" stroke-width="2" fill="none" marker-start="url(#SvgjsMarker1312)" marker-end="url(#SvgjsMarker1314)"></path></g><g id="SvgjsG1316"><path id="SvgjsPath1317" d="M555.1786600496278 305.96019482814876C 555.1786600496278 275.6862134112397 605.2721651108749 279.49924041734414 605.2721651108749 249.22525900043507" stroke-dasharray="3,3" stroke="#323232" stroke-width="2" fill="none" marker-start="url(#SvgjsMarker1318)" marker-end="url(#SvgjsMarker1320)"></path></g><g id="SvgjsG1322"><path id="SvgjsPath1323" d="M701.4019851116625 330.39091051229065C 752.8426199627337 330.3909105122907 778.5593651489288 331.34943987369013 830 331.34943987369013" stroke-dasharray="3,3" stroke="#323232" stroke-width="2" fill="none" marker-start="url(#SvgjsMarker1324)" marker-end="url(#SvgjsMarker1326)"></path></g><g id="SvgjsG1328"><path id="SvgjsPath1329" d="M605.2721651108749 249.22525900043507C 605.2721651108749 280.70948442398964 657.4780285425446 276.6468960959146 657.4780285425446 308.13112151946916" stroke-dasharray="3,3" stroke="#323232" stroke-width="2" fill="none" marker-start="url(#SvgjsMarker1330)" marker-end="url(#SvgjsMarker1332)"></path></g><g id="SvgjsG1334" transform="translate(717.7550645292581,293.4384143191212)"><path id="SvgjsPath1335" d="M 0 0L 105.20062494256037 0L 105.20062494256037 30.844817272133987L 0 30.844817272133987Z" stroke="none" fill="none"></path><g id="SvgjsG1336"><text id="SvgjsText1337" font-family="微软雅黑" text-anchor="middle" font-size="13px" width="78" fill="#323232" font-weight="400" align="middle" anchor="middle" family="微软雅黑" size="13px" weight="400" font-style="" y="5.4724086360669935" transform="rotate(0)"><tspan id="SvgjsTspan1338" dy="16" x="53"><tspan id="SvgjsTspan1339" style="text-decoration:;">令牌环网协议</tspan></tspan></text></g></g><g id="SvgjsG1340" transform="translate(399.13454645712727,207.0524190664504)"><path id="SvgjsPath1341" d="M 0 0L 105.20062494256037 0L 105.20062494256037 30.844817272133987L 0 30.844817272133987Z" stroke="none" fill="none"></path><g id="SvgjsG1342"><text id="SvgjsText1343" font-family="微软雅黑" text-anchor="middle" font-size="13px" width="38" fill="#323232" font-weight="400" align="middle" anchor="middle" family="微软雅黑" size="13px" weight="400" font-style="" y="5.4724086360669935" transform="rotate(0)"><tspan id="SvgjsTspan1344" dy="16" x="53"><tspan id="SvgjsTspan1345" style="text-decoration:;">ip协议</tspan></tspan></text></g></g><g id="SvgjsG1346" transform="translate(714.1345464571273,207.05241906645043)"><path id="SvgjsPath1347" d="M 0 0L 105.20062494256037 0L 105.20062494256037 30.844817272133987L 0 30.844817272133987Z" stroke="none" fill="none"></path><g id="SvgjsG1348"><text id="SvgjsText1349" font-family="微软雅黑" text-anchor="middle" font-size="13px" width="38" fill="#323232" font-weight="400" align="middle" anchor="middle" family="微软雅黑" size="13px" weight="400" font-style="" y="5.4724086360669935" transform="rotate(0)"><tspan id="SvgjsTspan1350" dy="16" x="53"><tspan id="SvgjsTspan1351" style="text-decoration:;">ip协议</tspan></tspan></text></g></g></svg>