<svg id="SvgjsSvg1006" width="822" height="486" xmlns="http://www.w3.org/2000/svg" version="1.1" xmlns:xlink="http://www.w3.org/1999/xlink" xmlns:svgjs="http://svgjs.com/svgjs"><defs id="SvgjsDefs1007"></defs><g id="SvgjsG1008" transform="translate(276,25)"><path id="SvgjsPath1009" d="M 0 4Q 0 0 4 0L 247 0Q 251 0 251 4L 251 115Q 251 119 247 119L 4 119Q 0 119 0 115Z" stroke="#323232" stroke-width="2" fill-opacity="1" fill="#ffffff"></path><g id="SvgjsG1010"><text id="SvgjsText1011" font-family="微软雅黑" text-anchor="middle" font-size="13px" width="0" fill="#323232" font-weight="400" align="middle" anchor="middle" family="微软雅黑" size="13px" weight="400" font-style="" y="49.55" transform="rotate(0)"></text></g></g><g id="SvgjsG1012" transform="translate(271,151)"><path id="SvgjsPath1013" d="M 0 4Q 0 0 4 0L 249 0Q 253 0 253 4L 253 306Q 253 310 249 310L 4 310Q 0 310 0 306Z" stroke="#323232" stroke-width="2" fill-opacity="1" fill="#cce5ff"></path><g id="SvgjsG1014"><text id="SvgjsText1015" font-family="微软雅黑" text-anchor="middle" font-size="13px" width="0" fill="#323232" font-weight="400" align="middle" anchor="middle" family="微软雅黑" size="13px" weight="400" font-style="" y="145.05" transform="rotate(0)"></text></g></g><g id="SvgjsG1016" transform="translate(312.5,334.5)"><path id="SvgjsPath1017" d="M 0 0L 178 0L 178 61L 0 61Z" stroke="#323232" stroke-width="2" fill-opacity="1" fill="#660000"></path><g id="SvgjsG1018"><text id="SvgjsText1019" font-family="微软雅黑" text-anchor="middle" font-size="20px" width="100" fill="#ffffff" font-weight="400" align="middle" anchor="middle" family="微软雅黑" size="20px" weight="400" font-style="" y="15" transform="rotate(0)"><tspan id="SvgjsTspan1020" dy="25" x="89"><tspan id="SvgjsTspan1021" style="text-decoration:;">链路层</tspan></tspan></text></g></g><g id="SvgjsG1022" transform="translate(312,243)"><path id="SvgjsPath1023" d="M 0 0L 179 0L 179 68L 0 68Z" stroke="#323232" stroke-width="2" fill-opacity="1" fill="#660066"></path><g id="SvgjsG1024"><text id="SvgjsText1025" font-family="微软雅黑" text-anchor="middle" font-size="20px" width="60" fill="#ffffff" font-weight="400" align="middle" anchor="middle" family="微软雅黑" size="20px" weight="400" font-style="" y="18.5" transform="rotate(0)"><tspan id="SvgjsTspan1026" dy="25" x="89.5"><tspan id="SvgjsTspan1027" style="text-decoration:;">网络层</tspan></tspan></text></g></g><g id="SvgjsG1028" transform="translate(312,158)"><path id="SvgjsPath1029" d="M 0 0L 179 0L 179 64L 0 64Z" stroke="#323232" stroke-width="2" fill-opacity="1" fill="#330066"></path><g id="SvgjsG1030"><text id="SvgjsText1031" font-family="微软雅黑" text-anchor="middle" font-size="20px" width="60" fill="#ffffff" font-weight="400" align="middle" anchor="middle" family="微软雅黑" size="20px" weight="400" font-style="" y="16.5" transform="rotate(0)"><tspan id="SvgjsTspan1032" dy="25" x="89.5"><tspan id="SvgjsTspan1033" style="text-decoration:;">传输层</tspan></tspan></text></g></g><g id="SvgjsG1034" transform="translate(312.5,79)"><path id="SvgjsPath1035" d="M 0 0L 178 0L 178 59.5L 0 59.5Z" stroke="#323232" stroke-width="2" fill-opacity="1" fill="#336600"></path><g id="SvgjsG1036"><text id="SvgjsText1037" font-family="微软雅黑" text-anchor="middle" font-size="20px" width="60" fill="#ffffff" font-weight="400" align="middle" anchor="middle" family="微软雅黑" size="20px" weight="400" font-style="" y="14.25" transform="rotate(0)"><tspan id="SvgjsTspan1038" dy="25" x="89"><tspan id="SvgjsTspan1039" style="text-decoration:;">应用层</tspan></tspan></text></g></g><g id="SvgjsG1040" transform="translate(561,85.375)"><path id="SvgjsPath1041" d="M 0 4Q 0 0 4 0L 232 0Q 236 0 236 4L 236 42.75Q 236 46.75 232 46.75L 4 46.75Q 0 46.75 0 42.75Z" stroke="#323232" stroke-width="2" fill-opacity="1" fill="#ffffff"></path><g id="SvgjsG1042"><text id="SvgjsText1043" font-family="微软雅黑" text-anchor="middle" font-size="13px" width="67" fill="#323232" font-weight="700" align="middle" anchor="middle" family="微软雅黑" size="13px" weight="700" font-style="" y="13.425" transform="rotate(0)"><tspan id="SvgjsTspan1044" dy="16" x="118"><tspan id="SvgjsTspan1045" style="text-decoration:;">HTTP ,FTP</tspan></tspan></text></g></g><g id="SvgjsG1046" transform="translate(561,166.625)"><path id="SvgjsPath1047" d="M 0 4Q 0 0 4 0L 232 0Q 236 0 236 4L 236 42.75Q 236 46.75 232 46.75L 4 46.75Q 0 46.75 0 42.75Z" stroke="#323232" stroke-width="2" fill-opacity="1" fill="#ffffff"></path><g id="SvgjsG1048"><text id="SvgjsText1049" font-family="微软雅黑" text-anchor="middle" font-size="13px" width="67" fill="#323232" font-weight="700" align="middle" anchor="middle" family="微软雅黑" size="13px" weight="700" font-style="" y="13.425" transform="rotate(0)"><tspan id="SvgjsTspan1050" dy="16" x="118"><tspan id="SvgjsTspan1051" style="text-decoration:;">TCP，UDP</tspan></tspan></text></g></g><g id="SvgjsG1052" transform="translate(561,253.625)"><path id="SvgjsPath1053" d="M 0 4Q 0 0 4 0L 232 0Q 236 0 236 4L 236 42.75Q 236 46.75 232 46.75L 4 46.75Q 0 46.75 0 42.75Z" stroke="#323232" stroke-width="2" fill-opacity="1" fill="#ffffff"></path><g id="SvgjsG1054"><text id="SvgjsText1055" font-family="微软雅黑" text-anchor="middle" font-size="13px" width="52" fill="#323232" font-weight="700" align="middle" anchor="middle" family="微软雅黑" size="13px" weight="700" font-style="" y="13.425" transform="rotate(0)"><tspan id="SvgjsTspan1056" dy="16" x="118"><tspan id="SvgjsTspan1057" style="text-decoration:;">IP,ICMP</tspan></tspan></text></g></g><g id="SvgjsG1058" transform="translate(561,341.625)"><path id="SvgjsPath1059" d="M 0 4Q 0 0 4 0L 232 0Q 236 0 236 4L 236 42.75Q 236 46.75 232 46.75L 4 46.75Q 0 46.75 0 42.75Z" stroke="#323232" stroke-width="2" fill-opacity="1" fill="#ffffff"></path><g id="SvgjsG1060"><text id="SvgjsText1061" font-family="微软雅黑" text-anchor="middle" font-size="13px" width="52" fill="#323232" font-weight="700" align="middle" anchor="middle" family="微软雅黑" size="13px" weight="700" font-style="" y="13.425" transform="rotate(0)"><tspan id="SvgjsTspan1062" dy="16" x="118"><tspan id="SvgjsTspan1063" style="text-decoration:;">网卡驱动</tspan></tspan></text></g></g><g id="SvgjsG1064" transform="translate(25,86.75)"><path id="SvgjsPath1065" d="M 0 4Q 0 0 4 0L 214 0Q 218 0 218 4L 218 40Q 218 44 214 44L 4 44Q 0 44 0 40Z" stroke="#323232" stroke-width="2" fill-opacity="1" fill="#ffffff"></path><g id="SvgjsG1066"><text id="SvgjsText1067" font-family="微软雅黑" text-anchor="middle" font-size="13px" width="156" fill="#323232" font-weight="700" align="middle" anchor="middle" family="微软雅黑" size="13px" weight="700" font-style="" y="12.05" transform="rotate(0)"><tspan id="SvgjsTspan1068" dy="16" x="109"><tspan id="SvgjsTspan1069" style="text-decoration:;">负责特定的应用程序的细节</tspan></tspan></text></g></g><g id="SvgjsG1070" transform="translate(30.5,175.25)"><path id="SvgjsPath1071" d="M 0 4Q 0 0 4 0L 214 0Q 218 0 218 4L 218 42.75Q 218 46.75 214 46.75L 4 46.75Q 0 46.75 0 42.75Z" stroke="#323232" stroke-width="2" fill-opacity="1" fill="#ffffff"></path><g id="SvgjsG1072"><text id="SvgjsText1073" font-family="微软雅黑" text-anchor="middle" font-size="13px" width="169" fill="#323232" font-weight="700" align="middle" anchor="middle" family="微软雅黑" size="13px" weight="700" font-style="" y="13.425" transform="rotate(0)"><tspan id="SvgjsTspan1074" dy="16" x="109"><tspan id="SvgjsTspan1075" style="text-decoration:;">为应用程序提供端到端的通信</tspan></tspan></text></g></g><g id="SvgjsG1076" transform="translate(30.5,260)"><path id="SvgjsPath1077" d="M 0 4Q 0 0 4 0L 214 0Q 218 0 218 4L 218 39.75Q 218 43.75 214 43.75L 4 43.75Q 0 43.75 0 39.75Z" stroke="#323232" stroke-width="2" fill-opacity="1" fill="#ffffff"></path><g id="SvgjsG1078"><text id="SvgjsText1079" font-family="微软雅黑" text-anchor="middle" font-size="13px" width="195" fill="#323232" font-weight="700" align="middle" anchor="middle" family="微软雅黑" size="13px" weight="700" font-style="" y="3.925" transform="rotate(0)"><tspan id="SvgjsTspan1080" dy="16" x="109"><tspan id="SvgjsTspan1081" style="text-decoration:;">处理分组在网络中的活动，例如分</tspan></tspan><tspan id="SvgjsTspan1082" dy="16" x="109"><tspan id="SvgjsTspan1083" style="text-decoration:;">组选路</tspan></tspan></text></g></g><g id="SvgjsG1084" transform="translate(30.5,347.25)"><path id="SvgjsPath1085" d="M 0 4Q 0 0 4 0L 214 0Q 218 0 218 4L 218 31.5Q 218 35.5 214 35.5L 4 35.5Q 0 35.5 0 31.5Z" stroke="#323232" stroke-width="2" fill-opacity="1" fill="#ffffff"></path><g id="SvgjsG1086"><text id="SvgjsText1087" font-family="微软雅黑" text-anchor="middle" font-size="13px" width="195" fill="#323232" font-weight="700" align="middle" anchor="middle" family="微软雅黑" size="13px" weight="700" font-style="" y="-0.19999999999999996" transform="rotate(0)"><tspan id="SvgjsTspan1088" dy="16" x="109"><tspan id="SvgjsTspan1089" style="text-decoration:;">处理与电缆（其他的传输媒介）物</tspan></tspan><tspan id="SvgjsTspan1090" dy="16" x="109"><tspan id="SvgjsTspan1091" style="text-decoration:;">理接口</tspan></tspan></text></g></g><g id="SvgjsG1092" transform="translate(312.5,413)"><path id="SvgjsPath1093" d="M 0 0L 164.5 0L 164.5 39L 0 39Z" stroke="none" fill="none"></path><g id="SvgjsG1094"><text id="SvgjsText1095" font-family="微软雅黑" text-anchor="middle" font-size="13px" width="156" fill="#323232" font-weight="400" align="middle" anchor="middle" family="微软雅黑" size="13px" weight="400" font-style="" y="9.55" transform="rotate(0)"><tspan id="SvgjsTspan1096" dy="16" x="82.5"><tspan id="SvgjsTspan1097" style="text-decoration:;">操作系统内核处理通信细节</tspan></tspan></text></g></g><g id="SvgjsG1098" transform="translate(308.5,31)"><path id="SvgjsPath1099" d="M 0 0L 191 0L 191 37L 0 37Z" stroke="none" fill="none"></path><g id="SvgjsG1100"><text id="SvgjsText1101" font-family="微软雅黑" text-anchor="middle" font-size="13px" width="173" fill="#323232" font-weight="700" align="middle" anchor="middle" family="微软雅黑" size="13px" weight="700" font-style="" y="8.55" transform="rotate(0)"><tspan id="SvgjsTspan1102" dy="16" x="95.5"><tspan id="SvgjsTspan1103" style="text-decoration:;">用户进程，处理应用程序细节 </tspan></tspan></text></g></g></svg>