<svg id="SvgjsSvg1724" width="1175" height="639" xmlns="http://www.w3.org/2000/svg" version="1.1" xmlns:xlink="http://www.w3.org/1999/xlink" xmlns:svgjs="http://svgjs.com/svgjs"><defs id="SvgjsDefs1725"><marker id="SvgjsMarker1748" markerWidth="16" markerHeight="12" refX="16" refY="6" viewBox="0 0 16 12" orient="auto" markerUnits="userSpaceOnUse"><path id="SvgjsPath1749" d="M0,2 L14,6 L0,11 L0,2" fill="#323232" stroke="#323232" stroke-width="2"></path></marker><marker id="SvgjsMarker1752" markerWidth="16" markerHeight="12" refX="16" refY="6" viewBox="0 0 16 12" orient="auto" markerUnits="userSpaceOnUse"><path id="SvgjsPath1753" d="M0,2 L14,6 L0,11 L0,2" fill="#323232" stroke="#323232" stroke-width="2"></path></marker><marker id="SvgjsMarker1768" markerWidth="16" markerHeight="12" refX="16" refY="6" viewBox="0 0 16 12" orient="auto" markerUnits="userSpaceOnUse"><path id="SvgjsPath1769" d="M0,2 L14,6 L0,11 L0,2" fill="#323232" stroke="#323232" stroke-width="2"></path></marker><marker id="SvgjsMarker1772" markerWidth="16" markerHeight="12" refX="16" refY="6" viewBox="0 0 16 12" orient="auto" markerUnits="userSpaceOnUse"><path id="SvgjsPath1773" d="M0,2 L14,6 L0,11 L0,2" fill="#323232" stroke="#323232" stroke-width="2"></path></marker><marker id="SvgjsMarker1792" markerWidth="16" markerHeight="12" refX="16" refY="6" viewBox="0 0 16 12" orient="auto" markerUnits="userSpaceOnUse"><path id="SvgjsPath1793" d="M0,2 L14,6 L0,11 L0,2" fill="#323232" stroke="#323232" stroke-width="2"></path></marker><marker id="SvgjsMarker1814" markerWidth="16" markerHeight="12" refX="16" refY="6" viewBox="0 0 16 12" orient="auto" markerUnits="userSpaceOnUse"><path id="SvgjsPath1815" d="M0,2 L14,6 L0,11 L0,2" fill="#323232" stroke="#323232" stroke-width="2"></path></marker><marker id="SvgjsMarker1818" markerWidth="16" markerHeight="12" refX="16" refY="6" viewBox="0 0 16 12" orient="auto" markerUnits="userSpaceOnUse"><path id="SvgjsPath1819" d="M0,2 L14,6 L0,11 L0,2" fill="#323232" stroke="#323232" stroke-width="2"></path></marker><marker id="SvgjsMarker1848" markerWidth="16" markerHeight="12" refX="16" refY="6" viewBox="0 0 16 12" orient="auto" markerUnits="userSpaceOnUse"><path id="SvgjsPath1849" d="M0,2 L14,6 L0,11 L0,2" fill="#323232" stroke="#323232" stroke-width="2"></path></marker><marker id="SvgjsMarker1892" markerWidth="16" markerHeight="12" refX="0" refY="6" viewBox="0 0 16 12" orient="auto" markerUnits="userSpaceOnUse"><path id="SvgjsPath1893" d="M15,1.5 L2,6 L15,10.5" fill="#323232" stroke="#323232" stroke-width="2"></path></marker><marker id="SvgjsMarker1894" markerWidth="16" markerHeight="12" refX="16" refY="6" viewBox="0 0 16 12" orient="auto" markerUnits="userSpaceOnUse"><path id="SvgjsPath1895" d="M0,2 L14,6 L0,11 L0,2" fill="#323232" stroke="#323232" stroke-width="2"></path></marker><marker id="SvgjsMarker1930" markerWidth="16" markerHeight="12" refX="16" refY="6" viewBox="0 0 16 12" orient="auto" markerUnits="userSpaceOnUse"><path id="SvgjsPath1931" d="M0,2 L14,6 L0,11 L0,2" fill="#323232" stroke="#323232" stroke-width="2"></path></marker><marker id="SvgjsMarker1934" markerWidth="16" markerHeight="12" refX="16" refY="6" viewBox="0 0 16 12" orient="auto" markerUnits="userSpaceOnUse"><path id="SvgjsPath1935" d="M0,2 L14,6 L0,11 L0,2" fill="#323232" stroke="#323232" stroke-width="2"></path></marker><marker id="SvgjsMarker1938" markerWidth="16" markerHeight="12" refX="16" refY="6" viewBox="0 0 16 12" orient="auto" markerUnits="userSpaceOnUse"><path id="SvgjsPath1939" d="M0,2 L14,6 L0,11 L0,2" fill="#323232" stroke="#323232" stroke-width="2"></path></marker><marker id="SvgjsMarker1952" markerWidth="16" markerHeight="12" refX="16" refY="6" viewBox="0 0 16 12" orient="auto" markerUnits="userSpaceOnUse"><path id="SvgjsPath1953" d="M0,2 L14,6 L0,11 L0,2" fill="#323232" stroke="#323232" stroke-width="2"></path></marker><marker id="SvgjsMarker1956" markerWidth="16" markerHeight="12" refX="16" refY="6" viewBox="0 0 16 12" orient="auto" markerUnits="userSpaceOnUse"><path id="SvgjsPath1957" d="M0,2 L14,6 L0,11 L0,2" fill="#323232" stroke="#323232" stroke-width="2"></path></marker><marker id="SvgjsMarker1960" markerWidth="16" markerHeight="12" refX="0" refY="6" viewBox="0 0 16 12" orient="auto" markerUnits="userSpaceOnUse"><path id="SvgjsPath1961" d="M15,1.5 L2,6 L15,10.5" fill="#323232" stroke="#323232" stroke-width="2"></path></marker><marker id="SvgjsMarker1964" markerWidth="16" markerHeight="12" refX="0" refY="6" viewBox="0 0 16 12" orient="auto" markerUnits="userSpaceOnUse"><path id="SvgjsPath1965" d="M15,1.5 L2,6 L15,10.5" fill="#323232" stroke="#323232" stroke-width="2"></path></marker><marker id="SvgjsMarker1974" markerWidth="16" markerHeight="12" refX="16" refY="6" viewBox="0 0 16 12" orient="auto" markerUnits="userSpaceOnUse"><path id="SvgjsPath1975" d="M0,2 L14,6 L0,11 L0,2" fill="#323232" stroke="#323232" stroke-width="2"></path></marker><marker id="SvgjsMarker1978" markerWidth="16" markerHeight="12" refX="16" refY="6" viewBox="0 0 16 12" orient="auto" markerUnits="userSpaceOnUse"><path id="SvgjsPath1979" d="M0,2 L14,6 L0,11 L0,2" fill="#323232" stroke="#323232" stroke-width="2"></path></marker></defs><g id="SvgjsG1726" transform="translate(717,50)"><path id="SvgjsPath1727" d="M 0 0L 173 0L 173 59L 0 59Z" stroke="#323232" stroke-width="2" fill-opacity="1" fill="#ffffff"></path><g id="SvgjsG1728"><text id="SvgjsText1729" font-family="微软雅黑" text-anchor="middle" font-size="13px" width="52" fill="#323232" font-weight="700" align="middle" anchor="middle" family="微软雅黑" size="13px" weight="700" font-style="" y="19.55" transform="rotate(0)"><tspan id="SvgjsTspan1730" dy="16" x="86.5"><tspan id="SvgjsTspan1731" style="text-decoration:;">用户数据</tspan></tspan></text></g></g><g id="SvgjsG1732" transform="translate(717,153)"><path id="SvgjsPath1733" d="M 0 0L 173 0L 173 59L 0 59Z" stroke="#323232" stroke-width="2" fill-opacity="1" fill="#ffffff"></path><g id="SvgjsG1734"><text id="SvgjsText1735" font-family="微软雅黑" text-anchor="middle" font-size="13px" width="52" fill="#323232" font-weight="700" align="middle" anchor="middle" family="微软雅黑" size="13px" weight="700" font-style="" y="19.55" transform="rotate(0)"><tspan id="SvgjsTspan1736" dy="16" x="86.5"><tspan id="SvgjsTspan1737" style="text-decoration:;">用户数据</tspan></tspan></text></g></g><g id="SvgjsG1738" transform="translate(651,153)"><path id="SvgjsPath1739" d="M 0 0L 66 0L 66 59L 0 59Z" stroke="#323232" stroke-width="2" fill-opacity="1" fill="#ffffff"></path><g id="SvgjsG1740"><text id="SvgjsText1741" font-family="微软雅黑" text-anchor="middle" font-size="13px" width="40" fill="#323232" font-weight="700" align="middle" anchor="middle" family="微软雅黑" size="13px" weight="700" font-style="" y="11.55" transform="rotate(0)"><tspan id="SvgjsTspan1742" dy="16" x="33"><tspan id="SvgjsTspan1743" style="text-decoration:;">APP首</tspan></tspan><tspan id="SvgjsTspan1744" dy="16" x="33"><tspan id="SvgjsTspan1745" style="text-decoration:;">部</tspan></tspan></text></g></g><g id="SvgjsG1746"><path id="SvgjsPath1747" d="M717 79.5L717 155" stroke-dasharray="3,3" stroke="#323232" stroke-width="2" fill="none" marker-end="url(#SvgjsMarker1748)"></path></g><g id="SvgjsG1750"><path id="SvgjsPath1751" d="M889.1022225211328 100L889.1022225211328 148.77645713530757" stroke-dasharray="3,3" stroke="#323232" stroke-width="2" fill="none" marker-end="url(#SvgjsMarker1752)"></path></g><g id="SvgjsG1754" transform="translate(651,261)"><path id="SvgjsPath1755" d="M 0 0L 239 0L 239 58L 0 58Z" stroke="#323232" stroke-width="2" fill-opacity="1" fill="#ffffff"></path><g id="SvgjsG1756"><text id="SvgjsText1757" font-family="微软雅黑" text-anchor="middle" font-size="13px" width="52" fill="#323232" font-weight="700" align="middle" anchor="middle" family="微软雅黑" size="13px" weight="700" font-style="" y="19.05" transform="rotate(0)"><tspan id="SvgjsTspan1758" dy="16" x="119.5"><tspan id="SvgjsTspan1759" style="text-decoration:;">应用数据</tspan></tspan></text></g></g><g id="SvgjsG1760" transform="translate(548,261)"><path id="SvgjsPath1761" d="M 0 0L 103 0L 103 58L 0 58Z" stroke="#323232" stroke-width="2" fill-opacity="1" fill="#ffffff"></path><g id="SvgjsG1762"><text id="SvgjsText1763" font-family="微软雅黑" text-anchor="middle" font-size="13px" width="51" fill="#323232" font-weight="700" align="middle" anchor="middle" family="微软雅黑" size="13px" weight="700" font-style="" y="19.05" transform="rotate(0)"><tspan id="SvgjsTspan1764" dy="16" x="51.5"><tspan id="SvgjsTspan1765" style="text-decoration:;">TCP首部</tspan></tspan></text></g></g><g id="SvgjsG1766"><path id="SvgjsPath1767" d="M888.1022225211328 209L888.1022225211328 257.77645713530757" stroke-dasharray="3,3" stroke="#323232" stroke-width="2" fill="none" marker-end="url(#SvgjsMarker1768)"></path></g><g id="SvgjsG1770"><path id="SvgjsPath1771" d="M651.1022225211328 211L651.1022225211328 259.77645713530757" stroke-dasharray="3,3" stroke="#323232" stroke-width="2" fill="none" marker-end="url(#SvgjsMarker1772)"></path></g><g id="SvgjsG1774" transform="translate(329,25)"><path id="SvgjsPath1775" d="M 0 0L 181 0L 197 16L 197 222L 0 222L 0 0Z" stroke="none" fill-opacity="1" fill="#ffffaa"></path><path id="SvgjsPath1776" d="M 181 0L 181 16L 197 16Z" stroke="none" fill-opacity="1" fill="#cdcdcd"></path><path id="SvgjsPath1777" d="M 0 0L 181 0L 197 16L 197 222L 0 222L 0 0Z" stroke="none" fill="none"></path><g id="SvgjsG1778"><text id="SvgjsText1779" font-family="微软雅黑" text-anchor="middle" font-size="16px" width="176" fill="#ff3333" font-weight="700" align="middle" anchor="middle" family="微软雅黑" size="16px" weight="700" font-style="" y="58.6" transform="rotate(0)"><tspan id="SvgjsTspan1780" dy="20" x="98.5"><tspan id="SvgjsTspan1781" style="text-decoration:;">TCP和UDP都用一个16 </tspan></tspan><tspan id="SvgjsTspan1782" dy="20" x="98.5"><tspan id="SvgjsTspan1783" style="text-decoration:;">bit 端口号来表示不同的</tspan></tspan><tspan id="SvgjsTspan1784" dy="20" x="98.5"><tspan id="SvgjsTspan1785" style="text-decoration:;">应用程序。TCP和UDP</tspan></tspan><tspan id="SvgjsTspan1786" dy="20" x="98.5"><tspan id="SvgjsTspan1787" style="text-decoration:;">把源端口号和目的端口号</tspan></tspan><tspan id="SvgjsTspan1788" dy="20" x="98.5"><tspan id="SvgjsTspan1789" style="text-decoration:;">分别存入报文首中</tspan></tspan></text></g></g><g id="SvgjsG1790"><path id="SvgjsPath1791" d="M427.5 247C 427.5 298.1769479355696 496.8230520644304 290 548 290" stroke-dasharray="3,3" stroke="#323232" stroke-width="2" fill="none" marker-end="url(#SvgjsMarker1792)"></path></g><g id="SvgjsG1794" transform="translate(651,382)"><path id="SvgjsPath1795" d="M 0 0L 239 0L 239 58L 0 58Z" stroke="#323232" stroke-width="2" fill-opacity="1" fill="#ffffff"></path><g id="SvgjsG1796"><text id="SvgjsText1797" font-family="微软雅黑" text-anchor="middle" font-size="13px" width="52" fill="#323232" font-weight="700" align="middle" anchor="middle" family="微软雅黑" size="13px" weight="700" font-style="" y="19.05" transform="rotate(0)"><tspan id="SvgjsTspan1798" dy="16" x="119.5"><tspan id="SvgjsTspan1799" style="text-decoration:;">应用数据</tspan></tspan></text></g></g><g id="SvgjsG1800" transform="translate(548,382)"><path id="SvgjsPath1801" d="M 0 0L 103 0L 103 58L 0 58Z" stroke="#323232" stroke-width="2" fill-opacity="1" fill="#ffffff"></path><g id="SvgjsG1802"><text id="SvgjsText1803" font-family="微软雅黑" text-anchor="middle" font-size="13px" width="51" fill="#323232" font-weight="700" align="middle" anchor="middle" family="微软雅黑" size="13px" weight="700" font-style="" y="19.05" transform="rotate(0)"><tspan id="SvgjsTspan1804" dy="16" x="51.5"><tspan id="SvgjsTspan1805" style="text-decoration:;">TCP首部</tspan></tspan></text></g></g><g id="SvgjsG1806" transform="translate(445,382)"><path id="SvgjsPath1807" d="M 0 0L 103 0L 103 58L 0 58Z" stroke="#323232" stroke-width="2" fill-opacity="1" fill="#ffffff"></path><g id="SvgjsG1808"><text id="SvgjsText1809" font-family="微软雅黑" text-anchor="middle" font-size="13px" width="39" fill="#323232" font-weight="700" align="middle" anchor="middle" family="微软雅黑" size="13px" weight="700" font-style="" y="19.05" transform="rotate(0)"><tspan id="SvgjsTspan1810" dy="16" x="51.5"><tspan id="SvgjsTspan1811" style="text-decoration:;">IP首部</tspan></tspan></text></g></g><g id="SvgjsG1812"><path id="SvgjsPath1813" d="M548.1022225211328 320L548 383" stroke-dasharray="3,3" stroke="#323232" stroke-width="2" fill="none" marker-end="url(#SvgjsMarker1814)"></path></g><g id="SvgjsG1816"><path id="SvgjsPath1817" d="M891.1022225211328 320L891.1022225211328 379" stroke-dasharray="3,3" stroke="#323232" stroke-width="2" fill="none" marker-end="url(#SvgjsMarker1818)"></path></g><g id="SvgjsG1820" transform="translate(25,95)"><path id="SvgjsPath1821" d="M 0 0L 229 0L 245 16L 245 266L 0 266L 0 0Z" stroke="none" fill-opacity="1" fill="#ffffaa"></path><path id="SvgjsPath1822" d="M 229 0L 229 16L 245 16Z" stroke="none" fill-opacity="1" fill="#cdcdcd"></path><path id="SvgjsPath1823" d="M 0 0L 229 0L 245 16L 245 266L 0 266L 0 0Z" stroke="none" fill="none"></path><g id="SvgjsG1824"><text id="SvgjsText1825" font-family="微软雅黑" text-anchor="middle" font-size="16px" width="224" fill="#ff3333" font-weight="700" align="middle" anchor="middle" family="微软雅黑" size="16px" weight="700" font-style="" y="30.6" transform="rotate(0)"><tspan id="SvgjsTspan1826" dy="20" x="122.5"><tspan id="SvgjsTspan1827" style="text-decoration:;">由于TCP、UDP、ICMP和</tspan></tspan><tspan id="SvgjsTspan1828" dy="20" x="122.5"><tspan id="SvgjsTspan1829" style="text-decoration:;">IGMP都要向IP传送数据，因此</tspan></tspan><tspan id="SvgjsTspan1830" dy="20" x="122.5"><tspan id="SvgjsTspan1831" style="text-decoration:;">IP必须在生成的IP首部中加入某</tspan></tspan><tspan id="SvgjsTspan1832" dy="20" x="122.5"><tspan id="SvgjsTspan1833" style="text-decoration:;">种标识，以表明数据属于哪一</tspan></tspan><tspan id="SvgjsTspan1834" dy="20" x="122.5"><tspan id="SvgjsTspan1835" style="text-decoration:;">层。为此， IP在首部中存入一</tspan></tspan><tspan id="SvgjsTspan1836" dy="20" x="122.5"><tspan id="SvgjsTspan1837" style="text-decoration:;">个长度为8 bit的数值，称作协</tspan></tspan><tspan id="SvgjsTspan1838" dy="20" x="122.5"><tspan id="SvgjsTspan1839" style="text-decoration:;">议域。 1表示为ICMP协议，2</tspan></tspan><tspan id="SvgjsTspan1840" dy="20" x="122.5"><tspan id="SvgjsTspan1841" style="text-decoration:;">表示为I GMP协议，6表示为</tspan></tspan><tspan id="SvgjsTspan1842" dy="20" x="122.5"><tspan id="SvgjsTspan1843" style="text-decoration:;">TCP协议，17表示为U D P协</tspan></tspan><tspan id="SvgjsTspan1844" dy="20" x="122.5"><tspan id="SvgjsTspan1845" style="text-decoration:;">议。 </tspan></tspan></text></g></g><g id="SvgjsG1846"><path id="SvgjsPath1847" d="M147.5 361C 147.50000000000003 481.66896867049127 324.33103132950873 411 445 411" stroke-dasharray="3,3" stroke="#323232" stroke-width="2" fill="none" marker-end="url(#SvgjsMarker1848)"></path></g><g id="SvgjsG1850" transform="translate(651,496)"><path id="SvgjsPath1851" d="M 0 0L 239 0L 239 58L 0 58Z" stroke="#323232" stroke-width="2" fill-opacity="1" fill="#ffffff"></path><g id="SvgjsG1852"><text id="SvgjsText1853" font-family="微软雅黑" text-anchor="middle" font-size="13px" width="52" fill="#323232" font-weight="700" align="middle" anchor="middle" family="微软雅黑" size="13px" weight="700" font-style="" y="19.05" transform="rotate(0)"><tspan id="SvgjsTspan1854" dy="16" x="119.5"><tspan id="SvgjsTspan1855" style="text-decoration:;">应用数据</tspan></tspan></text></g></g><g id="SvgjsG1856" transform="translate(548,496)"><path id="SvgjsPath1857" d="M 0 0L 103 0L 103 58L 0 58Z" stroke="#323232" stroke-width="2" fill-opacity="1" fill="#ffffff"></path><g id="SvgjsG1858"><text id="SvgjsText1859" font-family="微软雅黑" text-anchor="middle" font-size="13px" width="79" fill="#323232" font-weight="700" align="middle" anchor="middle" family="微软雅黑" size="13px" weight="700" font-style="" y="11.05" transform="rotate(0)"><tspan id="SvgjsTspan1860" dy="16" x="51.5"><tspan id="SvgjsTspan1861" style="text-decoration:;">    TCP首部    </tspan></tspan><tspan id="SvgjsTspan1862" dy="16" x="51.5"><tspan id="SvgjsTspan1863" style="text-decoration:;">       20     </tspan></tspan></text></g></g><g id="SvgjsG1864" transform="translate(445,496)"><path id="SvgjsPath1865" d="M 0 0L 103 0L 103 58L 0 58Z" stroke="#323232" stroke-width="2" fill-opacity="1" fill="#ffffff"></path><g id="SvgjsG1866"><text id="SvgjsText1867" font-family="微软雅黑" text-anchor="middle" font-size="13px" width="78" fill="#323232" font-weight="700" align="middle" anchor="middle" family="微软雅黑" size="13px" weight="700" font-style="" y="11.05" transform="rotate(0)"><tspan id="SvgjsTspan1868" dy="16" x="51.5"><tspan id="SvgjsTspan1869" style="text-decoration:;">     IP首部      </tspan></tspan><tspan id="SvgjsTspan1870" dy="16" x="51.5"><tspan id="SvgjsTspan1871" style="text-decoration:;">20</tspan></tspan></text></g></g><g id="SvgjsG1872" transform="translate(342,496)"><path id="SvgjsPath1873" d="M 0 0L 103 0L 103 58L 0 58Z" stroke="#323232" stroke-width="2" fill-opacity="1" fill="#ffffff"></path><g id="SvgjsG1874"><text id="SvgjsText1875" font-family="微软雅黑" text-anchor="middle" font-size="13px" width="81" fill="#323232" font-weight="700" align="middle" anchor="middle" family="微软雅黑" size="13px" weight="700" font-style="" y="11.05" transform="rotate(0)"><tspan id="SvgjsTspan1876" dy="16" x="51.5"><tspan id="SvgjsTspan1877" style="text-decoration:;">以太网首部    </tspan></tspan><tspan id="SvgjsTspan1878" dy="16" x="51.5"><tspan id="SvgjsTspan1879" style="text-decoration:;">14</tspan></tspan></text></g></g><g id="SvgjsG1880" transform="translate(890,496)"><path id="SvgjsPath1881" d="M 0 0L 103 0L 103 58L 0 58Z" stroke="#323232" stroke-width="2" fill-opacity="1" fill="#ffffff"></path><g id="SvgjsG1882"><text id="SvgjsText1883" font-family="微软雅黑" text-anchor="middle" font-size="13px" width="81" fill="#323232" font-weight="700" align="middle" anchor="middle" family="微软雅黑" size="13px" weight="700" font-style="" y="19.05" transform="rotate(0)"><tspan id="SvgjsTspan1884" dy="16" x="51.5"><tspan id="SvgjsTspan1885" style="text-decoration:;">以太网尾部  4</tspan></tspan></text></g></g><g id="SvgjsG1886"><path id="SvgjsPath1887" d="M342 525L342 605" stroke-dasharray="3,3" stroke="#323232" stroke-width="2" fill="none"></path></g><g id="SvgjsG1888"><path id="SvgjsPath1889" d="M993 523L993 603" stroke-dasharray="3,3" stroke="#323232" stroke-width="2" fill="none"></path></g><g id="SvgjsG1890"><path id="SvgjsPath1891" d="M354 577L982 577" stroke="#323232" stroke-width="2" fill="none" marker-start="url(#SvgjsMarker1892)" marker-end="url(#SvgjsMarker1894)"></path></g><g id="SvgjsG1896" transform="translate(627,574)"><path id="SvgjsPath1897" d="M 0 0L 120 0L 120 40L 0 40Z" stroke="none" fill="none"></path><g id="SvgjsG1898"><text id="SvgjsText1899" font-family="微软雅黑" text-anchor="middle" font-size="15px" width="90" fill="#323232" font-weight="700" align="middle" anchor="middle" family="微软雅黑" size="15px" weight="700" font-style="" y="8.25" transform="rotate(0)"><tspan id="SvgjsTspan1900" dy="18" x="60"><tspan id="SvgjsTspan1901" style="text-decoration:;">以太网数据帧</tspan></tspan></text></g></g><g id="SvgjsG1902" transform="translate(1041,109)"><path id="SvgjsPath1903" d="M 0 0L 98 0L 98 36L 0 36Z" stroke="#323232" stroke-width="2" fill-opacity="1" fill="#ffffff"></path><g id="SvgjsG1904"><text id="SvgjsText1905" font-family="微软雅黑" text-anchor="middle" font-size="14px" width="56" fill="#323232" font-weight="700" align="middle" anchor="middle" family="微软雅黑" size="14px" weight="700" font-style="" y="6.9" transform="rotate(0)"><tspan id="SvgjsTspan1906" dy="17" x="49"><tspan id="SvgjsTspan1907" style="text-decoration:;">应用程序</tspan></tspan></text></g></g><g id="SvgjsG1908" transform="translate(1041,210)"><path id="SvgjsPath1909" d="M 0 0L 98 0L 98 36L 0 36Z" stroke="#323232" stroke-width="2" fill-opacity="1" fill="#ffffff"></path><g id="SvgjsG1910"><text id="SvgjsText1911" font-family="微软雅黑" text-anchor="middle" font-size="14px" width="27" fill="#323232" font-weight="700" align="middle" anchor="middle" family="微软雅黑" size="14px" weight="700" font-style="" y="6.9" transform="rotate(0)"><tspan id="SvgjsTspan1912" dy="17" x="49"><tspan id="SvgjsTspan1913" style="text-decoration:;">TCP</tspan></tspan></text></g></g><g id="SvgjsG1914" transform="translate(1041,325)"><path id="SvgjsPath1915" d="M 0 0L 98 0L 98 36L 0 36Z" stroke="#323232" stroke-width="2" fill-opacity="1" fill="#ffffff"></path><g id="SvgjsG1916"><text id="SvgjsText1917" font-family="微软雅黑" text-anchor="middle" font-size="14px" width="14" fill="#323232" font-weight="700" align="middle" anchor="middle" family="微软雅黑" size="14px" weight="700" font-style="" y="6.9" transform="rotate(0)"><tspan id="SvgjsTspan1918" dy="17" x="49"><tspan id="SvgjsTspan1919" style="text-decoration:;">IP</tspan></tspan></text></g></g><g id="SvgjsG1920" transform="translate(1041,440)"><path id="SvgjsPath1921" d="M 0 0L 98 0L 98 36L 0 36Z" stroke="#323232" stroke-width="2" fill-opacity="1" fill="#ffffff"></path><g id="SvgjsG1922"><text id="SvgjsText1923" font-family="微软雅黑" text-anchor="middle" font-size="14px" width="70" fill="#323232" font-weight="700" align="middle" anchor="middle" family="微软雅黑" size="14px" weight="700" font-style="" y="6.9" transform="rotate(0)"><tspan id="SvgjsTspan1924" dy="17" x="49"><tspan id="SvgjsTspan1925" style="text-decoration:;">以太网驱动</tspan></tspan></text></g></g><g id="SvgjsG1926"><path id="SvgjsPath1927" d="M1043 526L1145 526" stroke="#323232" stroke-width="2" fill="none"></path></g><g id="SvgjsG1928"><path id="SvgjsPath1929" d="M1090 145L1090 210" stroke="#323232" stroke-width="2" fill="none" marker-end="url(#SvgjsMarker1930)"></path></g><g id="SvgjsG1932"><path id="SvgjsPath1933" d="M1090 246L1090 325" stroke="#323232" stroke-width="2" fill="none" marker-end="url(#SvgjsMarker1934)"></path></g><g id="SvgjsG1936"><path id="SvgjsPath1937" d="M1090 361L1090 440" stroke="#323232" stroke-width="2" fill="none" marker-end="url(#SvgjsMarker1938)"></path></g><g id="SvgjsG1940"><path id="SvgjsPath1941" d="M1090 476L1090 517" stroke="#323232" stroke-width="2" fill="none"></path></g><g id="SvgjsG1942" transform="translate(1030,517)"><path id="SvgjsPath1943" d="M 0 0L 120 0L 120 40L 0 40Z" stroke="none" fill="none"></path><g id="SvgjsG1944"><text id="SvgjsText1945" font-family="微软雅黑" text-anchor="middle" font-size="14px" width="42" fill="#323232" font-weight="700" align="middle" anchor="middle" family="微软雅黑" size="14px" weight="700" font-style="" y="8.9" transform="rotate(0)"><tspan id="SvgjsTspan1946" dy="17" x="60"><tspan id="SvgjsTspan1947" style="text-decoration:;">以太网</tspan></tspan></text></g></g><g id="SvgjsG1948"><path id="SvgjsPath1949" d="M1090 517L1090 524" stroke="#323232" stroke-width="2" fill="none"></path></g><g id="SvgjsG1950"><path id="SvgjsPath1951" d="M890.1022225211328 439L890.1022225211328 498" stroke-dasharray="3,3" stroke="#323232" stroke-width="2" fill="none" marker-end="url(#SvgjsMarker1952)"></path></g><g id="SvgjsG1954"><path id="SvgjsPath1955" d="M446.10222252113283 439L446.10222252113283 498" stroke-dasharray="3,3" stroke="#323232" stroke-width="2" fill="none" marker-end="url(#SvgjsMarker1956)"></path></g><g id="SvgjsG1958"><path id="SvgjsPath1959" d="M449 465L619 465" stroke="#323232" stroke-width="2" fill="none" marker-start="url(#SvgjsMarker1960)"></path></g><g id="SvgjsG1962"><path id="SvgjsPath1963" d="M554 347L654 348" stroke="#323232" stroke-width="2" fill="none" marker-start="url(#SvgjsMarker1964)"></path></g><g id="SvgjsG1966" transform="translate(654,328)"><path id="SvgjsPath1967" d="M 0 0L 120 0L 120 40L 0 40Z" stroke="none" fill="none"></path><g id="SvgjsG1968"><text id="SvgjsText1969" font-family="微软雅黑" text-anchor="middle" font-size="15px" width="44" fill="#323232" font-weight="700" align="middle" anchor="middle" family="微软雅黑" size="15px" weight="700" font-style="" y="8.25" transform="rotate(0)"><tspan id="SvgjsTspan1970" dy="18" x="60"><tspan id="SvgjsTspan1971" style="text-decoration:;">TCP段</tspan></tspan></text></g></g><g id="SvgjsG1972"><path id="SvgjsPath1973" d="M774 348L883 348" stroke="#323232" stroke-width="2" fill="none" marker-end="url(#SvgjsMarker1974)"></path></g><g id="SvgjsG1976"><path id="SvgjsPath1977" d="M739 465L882 465" stroke="#323232" stroke-width="2" fill="none" marker-end="url(#SvgjsMarker1978)"></path></g><g id="SvgjsG1980" transform="translate(619,445)"><path id="SvgjsPath1981" d="M 0 0L 120 0L 120 40L 0 40Z" stroke="none" fill="none"></path><g id="SvgjsG1982"><text id="SvgjsText1983" font-family="微软雅黑" text-anchor="middle" font-size="15px" width="60" fill="#323232" font-weight="700" align="middle" anchor="middle" family="微软雅黑" size="15px" weight="700" font-style="" y="8.25" transform="rotate(0)"><tspan id="SvgjsTspan1984" dy="18" x="60"><tspan id="SvgjsTspan1985" style="text-decoration:;">IP数据报</tspan></tspan></text></g></g></svg>